<?xml version="1.0" encoding="utf-8"?>
<!-- Generator: Adobe Illustrator 27.0.0, SVG Export Plug-In . SVG Version: 6.00 Build 0)  -->
<svg version="1.1" id="Layer_1" xmlns="http://www.w3.org/2000/svg" xmlns:xlink="http://www.w3.org/1999/xlink" x="0px" y="0px"
	 viewBox="0 0 512 512" style="enable-background:new 0 0 512 512;" xml:space="preserve">
<style type="text/css">
	.st0{fill:#01FF5F;}
	.st1{fill:#010101;}
	.st2{fill-rule:evenodd;clip-rule:evenodd;}
</style>
<rect class="st0" width="512" height="512"/>
<g>
	<path class="st1" d="M105.52,345.13c-3.14,0-6.22-1.26-8.5-3.64c-3.48-3.64-4.31-9.11-2.06-13.64l87.22-175.64
		c1.62-3.27,4.64-5.61,8.19-6.34c3.54-0.73,7.23,0.22,9.99,2.58l96.84,82.77l102.25-47.4c4.52-2.1,9.85-1.1,13.34,2.48
		c3.49,3.59,4.38,9,2.23,13.53L366.47,302.1c-1.58,3.33-4.6,5.73-8.18,6.51c-3.57,0.77-7.3-0.17-10.09-2.56l-54.79-46.83
		l-182.97,84.82C108.86,344.77,107.19,345.13,105.52,345.13z M196.57,176.45l-65.42,131.73l142.34-65.98L196.57,176.45z
		 M317.12,248.24l34.66,29.63l27.81-58.58L317.12,248.24L317.12,248.24z"/>
	<path class="st2" d="M329.84,347.37c0,3.36,0.08,6.24,1.42,9.24c0.46,1.04,0.84,1.86,1.45,2.72c0.82,1.15,0.94,1.25,1.97,2.29
		c2.93,2.97,8.27,4.38,12.49,4.38h7.51c0.31,0,0.97-1.01,1.29-1.4l3.06-3.89c1.27-1.59,0.45-1.38-2.49-1.38
		c-2.62,0-8.63,0.12-10.5-0.16c-1.14-0.17-1.86-0.36-2.79-0.73c-1.61-0.64-2.97-1.9-3.67-3.47c-0.38-0.86-0.9-2.25-0.65-3.34
		c2.34,0,19.04,0.13,20.52-0.07c0.69-0.09,0.81-0.07,1.4-0.27c2.29-0.79,2.09-3.15,2.09-4.95c0-3.25-0.76-5.6-1.8-8.12
		c-0.21-0.52-0.45-0.87-0.72-1.32c-0.99-1.65-2.29-3.02-3.86-4.11c-0.73-0.51-1.74-1.03-2.61-1.38c-6.22-2.47-15.14-1.55-19.68,3.59
		c-0.2,0.22-0.24,0.32-0.46,0.55c-1.07,1.12-2.1,3.25-2.67,4.66C330.45,341.96,329.84,344.96,329.84,347.37z M338.46,344.59
		c0-2.03,0.83-4.22,1.98-5.71c2.38-3.05,8.4-3.33,11.16-0.57c2.01,2.01,1.97,4.07,1.97,6.65c0,0.55-0.95,0.37-1.48,0.37h-13.35
		C338.64,344.96,338.46,345.03,338.46,344.59z M362.38,330.59c0,0.19,3.85,6.01,4.13,6.44l1.39,2.13c0.26,0.39,0.45,0.72,0.69,1.08
		l2.09,3.19c0.47,0.78,0.9,1.37,1.38,2.15c1.69,2.77,2.01,1.93-0.02,4.97l-7.21,10.68c-0.36,0.53-2.82,4.1-2.82,4.32
		c0,0.21,0.25,0.46,0.46,0.46h8.9c0.39,0,0.88-0.92,1.07-1.24l4.49-7.38c0.59-0.99,1.22-1.93,1.77-2.96
		c0.63,0.05,0.76,0.54,1.18,1.24l1.82,3c0.32,0.54,0.6,0.97,0.91,1.49l2.73,4.51c0.22,0.34,0.74,1.35,1.15,1.35h9.18
		c1.25,0,0.06-1.37-0.11-1.65l-2.77-4.37c-0.22-0.36-0.44-0.67-0.69-1.08l-5.56-8.72c-1.94-2.96-1.71-1.78,0.54-5.47l1.36-2.08
		c0.24-0.36,0.42-0.69,0.68-1.07l6.39-9.93c0.02-0.03,0.94-1.14-0.31-1.14h-8.71c-0.4,0-0.84,0.88-1.04,1.19
		c-0.31,0.47-0.54,0.89-0.85,1.37c-0.16,0.25-0.29,0.47-0.42,0.69c-0.15,0.26-0.27,0.42-0.43,0.68c-0.31,0.5-0.55,0.89-0.85,1.38
		c-0.94,1.59-2.6,4.09-3.37,5.53c-0.64-0.15-0.81-0.69-1.13-1.19c-0.31-0.47-0.63-0.96-0.9-1.41l-2.71-4.34
		c-0.32-0.5-0.63-0.94-0.94-1.47c-0.3-0.5-0.59-0.96-0.9-1.42c-0.16-0.24-0.31-0.5-0.46-0.74c-0.25-0.39-0.24-0.65-0.56-0.65h-9.09
		C362.63,330.13,362.38,330.37,362.38,330.59z M399.19,323.36v30.59c0,4.68,1.63,9.61,6.25,11.46c1.54,0.61,3.13,0.89,4.75,0.97
		h1.79c1.6-0.07,3.2-0.29,4.75-0.54c0.53-0.09,1.06-0.28,1.56-0.29v-7.79l-3.35,0.63c-1.2,0.15-2.55,0.3-3.65-0.02
		c-2.26-0.65-3.1-2.62-3.1-4.97v-16.22c0-0.22,0.16-0.37,0.37-0.37h9.73v-6.67h-9.73c-0.56,0-0.37-1.13-0.37-2.04v-5.01
		c0-2.16,0.14-1.72-4.97-0.7l-3.09,0.62C399.75,323.07,399.19,322.98,399.19,323.36z M295.17,336.9v28.74
		c0,0.22,0.15,0.37,0.37,0.37h7.79c0.57,0,1.06-0.6,1.58-0.74l0.02-26.22c0.09-0.33,0.31-0.29,0.65-0.37
		c3.13-0.72,3.41-0.67,6.57-0.67c1.29,0,2.4,0.48,3.15,1.02c0.86,0.61,1.36,1.4,1.73,2.54c0.59,1.8,0.31,5.85,0.31,8.22v14.83
		c0,0.56-0.21,1.76,0.37,1.76h7.88c0.22,0,0.37-0.15,0.37-0.37v-23.27c0-3.07-1.13-6.37-3.13-8.46c-0.92-0.96-2.77-2.14-4-2.58
		c-0.39-0.14-0.81-0.27-1.25-0.42c-3.19-1.05-8.01-0.87-11.36-0.4c-2.48,0.35-7.08,1-9.02,2.29
		C296.14,333.86,295.17,335.2,295.17,336.9z"/>
</g>
</svg>
