<?xml version="1.0" encoding="UTF-8"?><svg id="a" xmlns="http://www.w3.org/2000/svg" viewBox="0 0 1000 1000"><defs><style>.b{fill:#006e43;}.c{fill:#3dae2b;}</style></defs><path class="b" d="m148.88,453.58c-.06,10.11-2.68,15.21-5.93,15.59-2.13.25-4.59-1.51-6.81-5.18-7.3-11.99-15.29-23.42-23.78-34.64,0-.02.01-.05.02-.07,3.29-17.7,8.56-35.75,17.58-51.45,11.28,22.72,19.06,50.47,18.92,75.75m-42.33-.59c7.97,7.14,10.15,12.84,8.37,15.95-1.16,2.04-4.07,3-8.34,2.5-14.29-1.68-28.54-2.34-42.96-2.44-.01-.02-.03-.04-.05-.06-13.61-16.2-25.93-34.45-33.84-54.16,26.98,6.39,56.18,19.74,76.82,38.22m-27.21,36.95c10.65-2.25,16.47-.4,17.78,3.12.86,2.31-.21,5.39-3.22,8.69-9.97,10.88-19.11,22.31-27.88,34.21h-.08c-21.47,1.59-43.8.7-64.75-4.52,21.35-18.91,50.28-35.61,78.16-41.49m12.17,45.57c4.66-9.91,9.63-13.64,13.05-12.6,2.25.68,3.9,3.4,4.5,7.77,1.92,13.79,4.69,27.32,8.07,40.86-.01.02-.03.04-.05.06-11.68,16.58-24.21,32.54-39.93,45.52-1.86-26.79,3-57.44,14.36-81.61m40.33,16.26c-4.14-9.07-3.83-15.22-1.03-17.34,1.84-1.39,4.78-1.13,8.2.89,10.44,6.16,21.2,11.92,32.48,16.49,0,.02,0,.05.01.07,4.06,16.95,6.42,34.74,5.38,52.18-18.78-12.3-35.82-32.1-45.04-52.29m35.52-22.34c-8.59-1.9-12.7-5.75-12.43-9.25.17-2.3,2.17-4.51,5.69-6.07,10.8-4.79,21.46-10.06,31.5-16.37.02.01.04.02.05.03,13.3,6.79,26.08,15.41,36.36,26.32-18.69,7.28-41.82,9.62-61.17,5.34m7.04-42.14c-6.8,5.95-12.04,6.95-14.33,4.54-1.5-1.58-1.8-4.64-.67-8.6,3.61-12.55,6.41-25.23,8.74-38.11.02,0,.04-.01.06-.02,13.71-6.42,27.47-12.3,42.69-13.89-7.19,20.54-20.22,41.86-36.49,56.09"/><path class="c" d="m129.96,377.84c-9.01,15.69-14.28,33.74-17.57,51.44,0,.02-.01.05-.02.07-2.26-2.94-5.26-6.48-7.86-9.71-9.84-12.26-20.72-23.72-31.73-34.98,18.07-7.25,37.91-9.63,57.18-6.82M0,473.87c16.84-2.06,33.76-3.94,50.52-4.51,4.33-.15,9.24-.37,13.12-.37-.02-.02-.03-.05-.05-.06-13.61-16.2-25.93-34.45-33.84-54.15-15.02,16.59-25.27,37.19-29.75,59.1m33.18,115.15c7.92-14.44,16.27-28.73,25.4-42.21,2.42-3.58,5.15-7.69,7.44-10.86-.03,0-.05,0-.08,0-21.46,1.59-43.79.71-64.74-4.52,5.36,21.6,16.34,41.71,31.98,57.59m101.08,32.58c-5.1-12.85-9.99-25.78-13.88-38.83-1.08-3.62-2.35-7.83-3.24-11.24-.01.02-.03.04-.04.06-11.68,16.57-24.21,32.53-39.93,45.52,18.98,5.56,37.41,8.17,57.09,4.49m78.79-56.14c-10.95-2.77-21.86-5.92-32.33-10.05-2.98-1.18-6.45-2.42-9.21-3.6,0,.02,0,.05.01.07,4.06,16.95,6.42,34.73,5.38,52.18,14.75-9.96,27.12-23.26,36.15-38.59m14.68-93.38c-8.79,7.23-17.83,14.23-27.38,20.35-2.67,1.71-5.7,3.78-8.23,5.31.02,0,.03.02.05.03,13.3,6.79,26.08,15.4,36.36,26.31,2.44-18.03,2.24-34.06-.8-52m-54.35-78.28c-.8,13.51-1.78,27.05-3.61,40.26-.5,3.58-1.06,7.76-1.62,11.06.02,0,.04-.02.06-.02,13.71-6.42,27.47-12.3,42.69-13.89-9.56-15.05-22.37-27.97-37.51-37.4"/><path class="c" d="m940.44,415.6l-23.35,164.87h-29.7v-18.43c-14.72,14.07-30.01,21.19-45.5,21.19-10.88,0-18.92-3.14-24.58-9.6-8.74-9.97-11.31-27.59-7.84-53.85,6.84-49.23,25.21-59.12,52.64-59.12,10.85,0,23.26.98,34.31,2.61l6.75-47.67h37.27Zm-64.07,72.22c-20.69,0-25.11,2.63-29.2,32.85-2.1,15.49-2.71,25.15.36,28.66,1.27,1.46,3.42,2.06,6.7,1.92,11.3-.22,20.29-6.19,31.88-16.44l6.55-46.99h-16.3Zm-335.61-27.16c-21.08,0-35.51,4.38-45.41,13.78-9.78,9.29-15.55,23.48-18.73,46.01-3.18,22.39-.46,38.19,8.31,48.3,8.46,9.74,22.81,14.48,43.87,14.48,10.35,0,25.57-.94,39.26-5.44l.96-.31,3.86-27.54-2.47.41c-9.52,1.36-21.52,2.05-35.64,2.05-9.77,0-14.63-1.2-17.35-4.28-3.36-3.81-4-11.24-2.19-25.63,3.25-26.68,11.54-30.98,30.12-30.98,7.53,0,35.64.48,35.64.48l3.65-26.13s-15.75-5.19-43.89-5.19m252.79,12.95c5.66,6.53,7.56,15.68,5.81,27.99-3.62,24.82-21.03,30.98-47.94,32.89l-31.99,2.41c.86,13.45,7.87,15.96,21.07,15.96,11.38,0,38.8-1.34,43.28-2.48l1.8-.46.21,1.85c1.11,9.74,4.35,20.5,4.38,20.61l.42,1.4-1.35.57c-14.55,6.11-37.49,8.89-52.65,8.89-21.49,0-36.27-4.87-45.18-14.9-9.08-10.22-12.21-26.17-9.55-48.76,5.34-44.05,22.34-58.91,67.37-58.91,22.26,0,36.75,4.24,44.31,12.95m-47.45,37.64c10.86-.87,15.9-2.99,17.17-13.29.31-3.59-.06-5.78-1.21-7.03-1.69-1.85-5.7-2.22-11.6-2.22-1.09,0-2.26.01-3.49.03-17.45,0-21.76,5.95-25.18,24.83l24.32-2.32Zm-60.11-47.36h-7.19c-13.65,0-27.01,6.76-44.23,22.49v-22.49h-29.48l-16.32,116.59h37.32l9.04-67.06c4.7-5.99,17.77-13.04,27.49-13.04h7.96l.28-1.28c.03-.15,3.4-15.14,13.69-32.77l1.43-2.44Zm-391.68-5.28c-3.12,24.06,5.29,38.28,28.13,47.57l30.16,12c9.58,3.5,11.69,5.29,10.46,14.76-1.86,12.22-6.62,15.49-27.7,15.49h-51.24l-4.56,32.02h57.29c44.63,0,59.62-10.52,64.15-45.03,2.79-21.78-.98-37.41-28.39-48.04l-28.51-10.85c-11.05-4.13-13.08-5.78-11.62-15.45,1.69-10.78,5.66-13.11,13.93-13.69h61.14l4.56-32.02h-54.57c-37.14,0-58.22,6.89-63.22,43.23m118.07,121.87h37.07l16.32-116.59h-37.07l-16.32,116.59Zm55.7-133.08l4.48-32.02h-37.07l-4.48,32.02h37.07Zm471.74,133.08h37.07l16.32-116.59h-37.07l-16.32,116.59Zm55.7-133.08l4.48-32.02h-37.07l-4.48,32.02h37.07Z"/></svg>